<svg width="74" height="61" viewBox="0 0 74 61" fill="none" xmlns="http://www.w3.org/2000/svg">
<path id="Vector" d="M48.9667 2H27.0543C25.7653 2 24.7986 3.2594 25.4431 4.5188L35.4325 20.891H15.4536C14.8091 20.891 14.1646 21.2059 14.1646 21.5207L2.24168 38.8375C1.91944 39.4672 1.91944 40.0969 2.24168 40.7266L13.1979 56.784C13.8424 57.7285 15.4536 57.7285 15.7758 56.784L23.8319 43.5603C24.4763 42.6157 25.7653 42.6157 26.4098 43.5603L36.3993 58.3583C36.7215 58.6731 37.0437 58.988 37.6882 58.988H58.6339C59.2784 58.988 59.6006 58.6731 59.9229 58.3583L71.8458 41.0415C72.1681 40.4118 72.1681 39.7821 71.8458 39.4672L50.2556 2.6297C50.2556 2.31485 49.6112 2 48.9667 2ZM25.7653 39.7821L36.077 22.1504L45.0998 37.2633C45.7443 38.2078 45.0998 39.7821 43.8108 39.7821H25.7653Z" stroke="#3E3D3D" stroke-width="3.5" stroke-miterlimit="10" stroke-linecap="round"/>
</svg>
